<svg width="78" height="94" viewBox="0 0 78 94" fill="none" xmlns="http://www.w3.org/2000/svg">
<g clip-path="url(#clip0)">
<path d="M77.4866 13.4302C77.3221 12.7729 76.8286 12.2618 76.189 12.0974C73.6851 11.422 71.0899 11.5132 68.6592 12.3165C69.9933 11.4767 71.0351 10.144 71.4737 8.50092C71.9306 6.82133 71.693 5.05045 70.8158 3.53517C69.9385 2.01988 68.5313 0.924493 66.8498 0.468082C63.3591 -0.462998 59.777 1.59998 58.8266 5.08697C58.388 6.73005 58.6256 8.40964 59.3566 9.79713C57.6569 7.89846 55.4455 6.52923 52.9417 5.85374C52.302 5.67117 51.6075 5.87199 51.1506 6.36492C50.6937 6.85784 50.5292 7.55159 50.7302 8.19056C52.2106 12.7912 52.4848 17.6657 51.5344 22.3758L50.8947 22.1933C49.9261 21.9377 48.9209 22.5036 48.665 23.4895C48.4092 24.4206 48.9209 25.3699 49.8164 25.6803L47.7512 33.3662C45.5764 41.4903 39.2163 48.0262 31.1382 50.436C30.5351 50.6186 30.0599 51.0932 29.8954 51.714L28.5064 56.8805C28.0861 55.8764 27.7205 54.8541 27.4464 53.7952L25.3995 46.1275L26.1671 45.9267C27.1357 45.6711 27.7205 44.667 27.4647 43.6994C27.2088 42.7318 26.2036 42.1476 25.235 42.4032L24.2115 42.677L24.0836 34.1695C24.0653 32.5995 23.316 31.1572 22.0732 30.2079C21.0132 29.4046 19.7156 29.0577 18.4179 29.222C18.4545 29.1307 18.5093 29.0394 18.5459 28.9482C18.8931 28.364 19.4414 27.9258 20.0994 27.7615C20.5745 27.6337 20.9583 27.3233 21.2142 26.9034C21.4701 26.4835 21.5249 25.9906 21.397 25.5159L19.4962 18.469C19.3683 17.9943 19.0576 17.6109 18.6373 17.3553C18.2169 17.118 17.7235 17.0449 17.2483 17.1727C16.5903 17.3553 15.8958 17.264 15.311 16.9172C14.7262 16.5703 14.2875 16.0226 14.123 15.3654C13.9951 14.8907 13.6844 14.5073 13.2641 14.2517C12.8437 14.0144 12.3503 13.9413 11.8751 14.0691L4.78391 15.9313C4.30873 16.0591 3.92493 16.3695 3.66907 16.7894C3.43148 17.2093 3.35837 17.7022 3.4863 18.1768C3.66907 18.8341 3.57769 19.5278 3.23044 20.112C2.88319 20.6962 2.3349 21.1344 1.67696 21.2987C0.708324 21.5543 0.123486 22.5584 0.379353 23.526L2.28008 30.573C2.53594 31.5406 3.54113 32.1248 4.50977 31.8692C5.29565 31.6501 6.0998 31.8327 6.70291 32.2891C5.47841 32.8003 4.50977 33.7496 3.99804 34.9911C3.37665 36.4333 3.46803 38.0581 4.23563 39.4456L8.38432 46.8943L7.36086 47.1681C6.39222 47.4237 5.80738 48.4278 6.06325 49.3954C6.28256 50.2169 7.01361 50.7464 7.83604 50.7464C8.00052 50.7464 8.14673 50.7281 8.31122 50.6916L9.07882 50.4908L11.1258 58.1585C13.3006 66.2644 11.0709 75.1005 5.29565 81.1981C4.85702 81.6546 4.69253 82.3118 4.85702 82.9325L7.39741 92.3894C7.52534 92.864 7.83604 93.2474 8.25639 93.503C8.53053 93.6673 8.8595 93.7403 9.1702 93.7403C9.33469 93.7403 9.48089 93.7221 9.64538 93.6856L46.5267 83.8088C47.0019 83.681 47.3857 83.3707 47.6416 82.9508C47.8792 82.5309 47.9523 82.0379 47.8243 81.5633L45.2839 72.1064C45.1195 71.4857 44.6443 71.011 44.0412 70.8285C40.2032 69.6783 36.7307 67.5971 33.9344 64.8404L40.587 66.6112C41.5556 66.8668 42.5608 66.3009 42.8167 65.315C43.0725 64.3474 42.506 63.3433 41.5191 63.0877L31.3575 60.3675L32.9475 54.4342L69.1892 64.1284L67.5992 70.0617L57.4011 67.3415C56.4324 67.0859 55.4272 67.6519 55.1714 68.6377C54.9155 69.6053 55.4821 70.6094 56.469 70.865L68.4399 74.0599C68.6044 74.0964 68.7506 74.1146 68.9151 74.1146C69.2257 74.1146 69.5547 74.0234 69.8289 73.8773C70.2492 73.64 70.5599 73.2383 70.6878 72.7637L73.2282 63.2886C73.3927 62.6678 73.2282 62.0289 72.7896 61.5542C67.0143 55.4383 64.7664 46.6022 66.9595 38.478L69.0247 30.7921C69.1344 30.8103 69.244 30.8286 69.3537 30.8286C70.1578 30.8286 70.9072 30.2991 71.1265 29.4776C71.3823 28.51 70.8158 27.5059 69.8289 27.2503L69.1892 27.0677C70.7244 22.5036 73.3927 18.4324 76.9931 15.1828C77.4318 14.7629 77.6511 14.0691 77.4866 13.4302ZM62.3539 6.0363C62.7011 4.74009 63.8708 3.9003 65.1502 3.9003C65.406 3.9003 65.6436 3.93681 65.8995 3.99158C66.6488 4.1924 67.2702 4.66707 67.654 5.34256C68.0378 6.01805 68.1475 6.78482 67.9464 7.53333C67.5261 9.06687 65.9543 9.9797 64.4008 9.57805C62.8656 9.15816 61.9518 7.56984 62.3539 6.0363ZM4.32701 24.0919C6.06325 22.9966 7.15982 21.0979 7.23292 19.0532L11.2902 17.9578C11.8202 18.8158 12.5513 19.5278 13.4468 20.039C14.3424 20.5502 15.3293 20.8423 16.3345 20.8788L17.4128 24.9317C16.5538 25.4612 15.841 26.1914 15.3293 27.086C14.8175 27.9806 14.5251 28.9664 14.4886 29.9705L10.4313 31.0659C9.33468 29.3315 7.43396 28.2362 5.38703 28.1631L4.32701 24.0919ZM7.43396 37.6747C7.21465 37.2914 7.19637 36.8349 7.36086 36.4333C7.52534 36.0317 7.87259 35.7213 8.31122 35.6118L18.619 32.855C19.0393 32.7455 19.4962 32.8368 19.8435 33.0924C20.1907 33.3662 20.4101 33.7679 20.4101 34.206L20.5563 43.6446L12.0213 45.9084L7.43396 37.6747ZM14.6531 57.2092L12.6061 49.5414L21.8539 47.0586L23.9008 54.7263C25.1436 59.3269 27.556 63.5807 30.8823 66.9946C32.911 69.0759 35.2503 70.8285 37.809 72.1977L11.3633 79.2812C12.8985 76.8166 14.0499 74.1329 14.7627 71.3214C15.9324 66.7025 15.8958 61.8098 14.6531 57.2092ZM10.4495 89.6691L8.8595 83.7358L42.1953 74.8084L43.7853 80.7417L10.4495 89.6691ZM66.7036 59.6738L37.3338 51.8052C39.8925 50.436 42.2501 48.6834 44.2788 46.6022C47.605 43.1699 50.0358 38.9162 51.2603 34.3156L53.3255 26.6296L65.4426 29.8792L63.3774 37.5652C62.1346 42.1841 62.098 47.0768 63.2677 51.6957C64.017 54.5255 65.1684 57.2092 66.7036 59.6738ZM65.5888 26.1367L55.08 23.3252C55.939 19.2357 55.9755 15.0367 55.2079 10.929C56.1948 11.6593 57.0355 12.5904 57.6935 13.6675C58.2052 14.5073 59.2835 14.7994 60.1425 14.3247C61.166 13.7588 62.2991 13.3937 63.4322 13.2293C64.346 13.9413 65.1319 14.8359 65.735 15.8218C66.2467 16.6616 67.325 16.9537 68.184 16.479C69.2806 15.8765 70.4868 15.4931 71.693 15.3471C68.9699 18.5055 66.9047 22.1568 65.5888 26.1367Z" fill="#93C11A"/>
<path d="M48.9941 65.1509C48.5189 65.1509 48.0437 65.3517 47.6965 65.6803C47.3492 66.0272 47.1665 66.4836 47.1665 66.9765C47.1665 67.4694 47.3675 67.9259 47.6965 68.2727C48.0437 68.6196 48.5006 68.8022 48.9941 68.8022C49.4693 68.8022 49.9445 68.6013 50.2917 68.2727C50.6389 67.9259 50.8217 67.4694 50.8217 66.9765C50.8217 66.4836 50.6207 66.0272 50.2917 65.6803C49.9445 65.3517 49.4693 65.1509 48.9941 65.1509Z" fill="#93C11A"/>
</g>
<defs>
<clipPath id="clip0">
<rect width="77.2169" height="93.4731" fill="white" transform="translate(0.324631 0.249023)"/>
</clipPath>
</defs>
</svg>
