<svg width="94" height="62" viewBox="0 0 94 62" fill="none" xmlns="http://www.w3.org/2000/svg">
<path d="M93.014 42.7736C92.7836 37.455 91.8622 31.5584 90.4801 26.0087C89.098 20.6901 87.3704 15.7185 85.2972 11.903C77.235 -2.31826 68.4816 -0.121481 58.0007 2.6534C54.6606 3.46274 51.0901 4.3877 47.4045 4.73456H46.2528C42.5672 4.3877 38.9967 3.46274 35.6566 2.6534C25.1757 -0.00586039 16.4223 -2.31826 8.36005 12.0186C6.28689 15.8341 4.44409 20.8058 3.17716 26.1243C1.79505 31.674 0.87365 37.5707 0.643299 42.8892C0.412949 48.7858 0.988826 53.0638 2.25576 56.0699C3.52268 58.8448 5.36549 60.5791 7.78417 61.2728C9.97251 61.8509 12.5064 61.6196 15.1554 60.4634C19.6472 58.6135 24.8301 54.6824 29.8979 49.942C33.4683 46.4734 40.1485 44.7391 46.8286 44.7391C53.5088 44.7391 60.189 46.4734 63.7594 49.942C68.8271 54.6824 74.01 58.6135 78.5019 60.4634C81.1509 61.504 83.6848 61.8509 85.8731 61.2728C88.1766 60.5791 90.1346 58.9604 91.4015 55.9543C92.6685 53.0638 93.2443 48.7858 93.014 42.7736ZM87.4856 54.3356C86.7945 55.9543 85.8731 56.8792 84.7214 57.2261C83.4544 57.5729 81.842 57.3417 79.9992 56.648C75.968 55.0293 71.2458 51.4451 66.6388 47.0515C62.2621 42.658 54.5454 40.4612 46.8286 40.4612C39.1119 40.4612 31.3951 42.658 26.9033 46.8203C22.1811 51.2138 17.4589 54.9137 13.5429 56.4167C11.7001 57.1105 10.0877 57.4573 8.82075 56.9948C7.669 56.648 6.7476 55.723 6.05654 54.1043C5.13514 51.9076 4.67444 48.3233 4.90479 43.0048C5.13514 38.0331 5.94137 32.3678 7.32347 27.0492C8.5904 22.0776 10.2029 17.4528 12.1608 13.9842C18.4955 2.53778 25.8667 4.3877 34.62 6.7001C38.1905 7.62507 41.8761 8.55003 45.9072 8.89689C46.0224 8.89689 46.0224 8.89689 46.1376 8.89689H47.4045C47.5197 8.89689 47.5197 8.89689 47.6349 8.89689C51.7812 8.55003 55.4668 7.62507 59.0372 6.7001C67.7906 4.50332 75.1618 2.53778 81.4964 13.9842C83.4544 17.4528 85.0669 21.962 86.3338 27.0492C87.6007 32.3678 88.5221 37.9175 88.7525 43.0048C88.9828 48.3233 88.5221 51.9076 87.4856 54.3356Z" fill="#93C11A"/>
<path d="M36.2321 20.2274C35.0803 19.1869 33.6982 18.3775 32.0858 18.2619C31.9706 16.7588 31.2795 15.2558 30.243 14.2152L30.1278 14.0996C28.8609 12.8278 27.2484 12.134 25.4056 12.134C23.5628 12.134 21.8352 12.9434 20.6834 14.0996C19.6468 15.1402 18.8406 16.6432 18.7254 18.2619C17.113 18.3775 15.7309 19.0712 14.5791 20.1118L14.4639 20.2274C13.197 21.4993 12.5059 23.1179 12.5059 24.9679C12.5059 26.8178 13.3122 28.5521 14.4639 29.7083C15.6157 30.8645 16.9978 31.5582 18.7254 31.6738C18.8406 33.2925 19.5316 34.7956 20.6834 35.8362C21.9503 37.108 23.5628 37.8017 25.4056 37.8017C27.2484 37.8017 28.976 36.9924 30.1278 35.8362C31.1644 34.68 31.9706 33.2925 32.0858 31.6738C33.6982 31.5582 35.1955 30.8645 36.2321 29.7083C37.499 28.4365 38.1901 26.8178 38.1901 24.9679C38.1901 23.1179 37.3838 21.3836 36.2321 20.2274ZM33.3527 26.7022C32.892 27.1647 32.3161 27.3959 31.6251 27.3959H30.0126C28.8609 27.3959 27.8243 28.3209 27.8243 29.5927V31.0957C27.8243 31.7895 27.5939 32.3676 27.1332 32.83C26.6725 33.2925 26.0966 33.5238 25.4056 33.5238C24.7145 33.5238 24.1387 33.2925 23.678 32.83C23.2173 32.3676 22.9869 31.7895 22.9869 31.0957V29.4771C22.9869 28.3209 22.0655 27.2803 20.7986 27.2803H19.1861C18.4951 27.2803 17.9192 27.049 17.4585 26.5866C17.113 26.2397 16.7674 25.6616 16.7674 24.9679C16.7674 24.2742 16.9978 23.696 17.4585 23.2336C17.4585 23.2336 17.4585 23.2336 17.5737 23.1179C18.0344 22.7711 18.6102 22.5398 19.1861 22.5398H20.7986C21.9503 22.5398 22.9869 21.6149 22.9869 20.3431V18.7244C22.9869 18.0307 23.2173 17.4526 23.678 16.9901C24.1387 16.5276 24.7145 16.2964 25.4056 16.2964C26.0966 16.2964 26.6725 16.5276 27.1332 16.9901C27.1332 16.9901 27.1332 16.9901 27.2484 17.1057C27.5939 17.5682 27.8243 18.1463 27.8243 18.7244V20.3431C27.8243 21.4993 28.7457 22.5398 30.0126 22.5398H31.6251C32.3161 22.5398 32.892 22.7711 33.3527 23.2336C33.8134 23.696 34.0437 24.2742 34.0437 24.9679C34.0437 25.6616 33.8134 26.2397 33.3527 26.7022Z" fill="#93C11A"/>
<path d="M66.8688 20.8058C69.0952 20.8058 70.9 18.994 70.9 16.7591C70.9 14.5242 69.0952 12.7124 66.8688 12.7124C64.6425 12.7124 62.8377 14.5242 62.8377 16.7591C62.8377 18.994 64.6425 20.8058 66.8688 20.8058Z" fill="#93C11A"/>
<path d="M66.8688 37.2235C69.0952 37.2235 70.9 35.4118 70.9 33.1768C70.9 30.9419 69.0952 29.1301 66.8688 29.1301C64.6425 29.1301 62.8377 30.9419 62.8377 33.1768C62.8377 35.4118 64.6425 37.2235 66.8688 37.2235Z" fill="#93C11A"/>
<path d="M58.6911 29.0145C60.9175 29.0145 62.7223 27.2028 62.7223 24.9678C62.7223 22.7329 60.9175 20.9211 58.6911 20.9211C56.4648 20.9211 54.66 22.7329 54.66 24.9678C54.66 27.2028 56.4648 29.0145 58.6911 29.0145Z" fill="#93C11A"/>
<path d="M75.0461 29.0145C77.2724 29.0145 79.0772 27.2028 79.0772 24.9678C79.0772 22.7329 77.2724 20.9211 75.0461 20.9211C72.8197 20.9211 71.0149 22.7329 71.0149 24.9678C71.0149 27.2028 72.8197 29.0145 75.0461 29.0145Z" fill="#93C11A"/>
</svg>
