<svg width="99" height="100" viewBox="0 0 99 100" fill="none" xmlns="http://www.w3.org/2000/svg">
<path d="M75.4545 10.0288C67.873 10.0288 61.7118 16.19 61.7118 23.7715C61.7118 31.353 67.873 37.5142 75.4545 37.5142C83.036 37.5142 89.1972 31.353 89.1972 23.7715C89.1972 16.19 83.036 10.0288 75.4545 10.0288ZM75.4545 34.6351C69.466 34.6351 64.5908 29.7599 64.5908 23.7715C64.5908 17.7831 69.466 12.9079 75.4545 12.9079C81.4429 12.9079 86.3181 17.7831 86.3181 23.7715C86.3181 29.7599 81.4429 34.6351 75.4545 34.6351Z" fill="white"/>
<path d="M69.5059 17.7261H69.314C68.5078 17.7261 67.8744 18.3787 67.8744 19.1656C67.8744 19.9525 68.527 20.6051 69.314 20.6051H69.5059C70.312 20.6051 70.9454 19.9525 70.9454 19.1656C70.9454 18.3787 70.2928 17.7261 69.5059 17.7261Z" fill="white"/>
<path d="M75.6479 17.7261H75.456C74.6498 17.7261 74.0164 18.3787 74.0164 19.1656C74.0164 19.9525 74.669 20.6051 75.456 20.6051H75.6479C76.454 20.6051 77.0874 19.9525 77.0874 19.1656C77.0874 18.3787 76.454 17.7261 75.6479 17.7261Z" fill="white"/>
<path d="M81.8076 17.7261H81.6157C80.8095 17.7261 80.1761 18.3787 80.1761 19.1656C80.1761 19.9525 80.8287 20.6051 81.6157 20.6051H81.8076C82.6137 20.6051 83.2471 19.9525 83.2471 19.1656C83.2471 18.3787 82.5945 17.7261 81.8076 17.7261Z" fill="white"/>
<path d="M75.6479 13.1001H75.456C74.6498 13.1001 74.0164 13.7527 74.0164 14.5396C74.0164 15.3266 74.669 15.9792 75.456 15.9792H75.6479C76.454 15.9792 77.0874 15.3266 77.0874 14.5396C77.0874 13.7527 76.454 13.1001 75.6479 13.1001Z" fill="white"/>
<path d="M69.5059 22.332H69.314C68.5078 22.332 67.8744 22.9846 67.8744 23.7716C67.8744 24.5585 68.527 25.2111 69.314 25.2111H69.5059C70.312 25.2111 70.9454 24.5585 70.9454 23.7716C70.9454 22.9846 70.2928 22.332 69.5059 22.332Z" fill="white"/>
<path d="M75.6479 22.332H75.456C74.6498 22.332 74.0164 22.9846 74.0164 23.7716C74.0164 24.5585 74.669 25.2111 75.456 25.2111H75.6479C76.454 25.2111 77.0874 24.5585 77.0874 23.7716C77.0874 22.9846 76.454 22.332 75.6479 22.332Z" fill="white"/>
<path d="M81.8076 22.332H81.6157C80.8095 22.332 80.1761 22.9846 80.1761 23.7716C80.1761 24.5585 80.8287 25.2111 81.6157 25.2111H81.8076C82.6137 25.2111 83.2471 24.5585 83.2471 23.7716C83.2471 22.9846 82.5945 22.332 81.8076 22.332Z" fill="white"/>
<path d="M69.5059 26.9385H69.314C68.5078 26.9385 67.8744 27.5911 67.8744 28.378C67.8744 29.1649 68.527 29.8175 69.314 29.8175H69.5059C70.312 29.8175 70.9454 29.1649 70.9454 28.378C70.9454 27.5911 70.2928 26.9385 69.5059 26.9385Z" fill="white"/>
<path d="M75.6479 26.9385H75.456C74.6498 26.9385 74.0164 27.5911 74.0164 28.378C74.0164 29.1649 74.669 29.8175 75.456 29.8175H75.6479C76.454 29.8175 77.0874 29.1649 77.0874 28.378C77.0874 27.5911 76.454 26.9385 75.6479 26.9385Z" fill="white"/>
<path d="M81.8076 26.9385H81.6157C80.8095 26.9385 80.1761 27.5911 80.1761 28.378C80.1761 29.1649 80.8287 29.8175 81.6157 29.8175H81.8076C82.6137 29.8175 83.2471 29.1649 83.2471 28.378C83.2471 27.5911 82.5945 26.9385 81.8076 26.9385Z" fill="white"/>
<path d="M75.6479 31.5645H75.456C74.6498 31.5645 74.0164 32.217 74.0164 33.004C74.0164 33.7909 74.669 34.4435 75.456 34.4435H75.6479C76.454 34.4435 77.0874 33.7909 77.0874 33.004C77.0874 32.217 76.454 31.5645 75.6479 31.5645Z" fill="white"/>
<path d="M97.3931 85.5753C96.2223 79.3182 93.4584 70.5274 86.9901 64.0592C84.9748 62.0438 82.5756 60.2396 79.9077 58.7233C79.2167 58.3394 78.3338 58.5698 77.9499 59.2607C77.566 59.9517 77.7964 60.8346 78.4873 61.2185C80.9441 62.6004 83.113 64.2319 84.9556 66.0745C89.6965 70.8153 92.326 77.0149 93.7655 82.6387C91.3279 83.1569 89.1015 84.2318 87.2013 85.8056L82.6716 81.2759L83.8232 80.1243C84.3798 79.5677 84.3798 78.6464 83.8232 78.0898C83.2666 77.5331 82.3453 77.5331 81.7887 78.0898L80.637 79.2414L77.2398 75.8441L78.3914 74.6925C78.948 74.1359 78.948 73.2146 78.3914 72.6579C77.8348 72.1013 76.9135 72.1013 76.3568 72.6579L75.2052 73.8096L71.8079 70.4123L72.9596 69.2607C73.5162 68.704 73.5162 67.7827 72.9596 67.2261C72.4029 66.6695 71.4816 66.6695 70.925 67.2261L69.7734 68.3777L65.2437 63.848C66.8368 61.9287 67.9116 59.7022 68.4107 57.2646C70.1381 57.706 71.9423 58.2627 73.7273 58.9728C74.4759 59.2607 75.3012 58.896 75.5891 58.1475C75.877 57.3989 75.5123 56.5736 74.783 56.2857C64.2648 52.1591 53.8426 52.6389 53.4204 52.6581C52.6718 52.6965 52.096 53.2915 52.0576 54.0208C52.0384 54.232 51.8081 59.3951 53.0749 66.1129C54.2457 72.37 57.0096 81.1608 63.4779 87.629C69.9461 94.0973 78.7561 96.8612 84.994 98.032C89.7924 98.9341 93.7847 99.0685 95.7617 99.0685C96.2607 99.0685 96.8365 99.1261 97.3164 99.0109C97.9498 98.8766 98.4104 98.3199 98.4488 97.6674C98.4296 97.437 98.6599 92.2931 97.3931 85.5753ZM54.8791 55.4988C56.8752 55.518 60.8867 55.6715 65.57 56.612C65.0901 58.992 63.9193 61.1417 62.1919 62.8691C60.4837 64.5774 58.3532 65.729 55.9923 66.228C55.071 61.5256 54.8983 57.4949 54.8791 55.4988ZM65.474 85.5753C60.7332 80.8345 58.1228 74.6541 56.6641 69.0303C59.0825 68.5121 61.2898 67.4373 63.19 65.8634L67.7197 70.3931L66.5681 71.5447C66.0114 72.1013 66.0114 73.0226 66.5681 73.5792C67.1247 74.1359 68.046 74.1359 68.6026 73.5792L69.7542 72.4276L73.1515 75.8249L71.9999 76.9765C71.4433 77.5331 71.4433 78.4544 71.9999 79.0111C72.5565 79.5677 73.4778 79.5677 74.0344 79.0111L75.186 77.8594L78.5833 81.2567L77.4317 82.4083C76.8751 82.965 76.8751 83.8863 77.4317 84.4429C77.9883 84.9995 78.9096 84.9995 79.4662 84.4429L80.6178 83.2913L85.1476 87.821C83.5737 89.7212 82.4988 91.9476 81.9806 94.3468C76.376 92.9457 70.2149 90.3162 65.474 85.5753ZM84.8213 95.0378C85.3203 92.677 86.4719 90.5465 88.1802 88.8382C89.9076 87.1108 92.0573 85.9592 94.4181 85.4602C95.3586 90.1434 95.5313 94.1549 95.5313 96.151C93.5544 96.151 89.5237 95.9975 84.8213 95.0378Z" fill="white"/>
<path d="M23.1531 62.332C15.5716 62.332 9.41042 68.4932 9.41042 76.0747C9.41042 83.6562 15.5716 89.8174 23.1531 89.8174C30.7346 89.8174 36.8958 83.6562 36.8958 76.0747C36.8958 68.4932 30.7346 62.332 23.1531 62.332ZM15.111 83.3683C13.3643 81.4298 12.2895 78.877 12.2895 76.0747C12.2895 74.0402 12.8461 72.14 13.825 70.5277C15.8979 72.2936 17.1071 74.8847 17.1071 77.6102C17.1071 79.7215 16.3969 81.7369 15.111 83.3683ZM23.1531 86.9384C21.0034 86.9384 19.0073 86.305 17.3182 85.2301C19.0457 83.0804 19.9862 80.4125 19.9862 77.6102C19.9862 73.9826 18.3739 70.5661 15.6292 68.2629C17.5869 66.3819 20.2357 65.2111 23.1723 65.2111C26.1089 65.2111 28.7577 66.3819 30.7154 68.2629C27.9707 70.5661 26.3585 74.0018 26.3585 77.6102C26.3585 80.4125 27.299 83.0612 29.0264 85.2301C27.3181 86.305 25.3028 86.9384 23.1531 86.9384ZM31.1953 83.3683C29.9093 81.7369 29.1991 79.7215 29.1991 77.6102C29.1991 74.8655 30.4083 72.2936 32.4813 70.5277C33.4601 72.1592 34.0168 74.0594 34.0168 76.0747C34.0168 78.877 32.9611 81.4298 31.1953 83.3683Z" fill="white"/>
<path d="M26.2226 0.796875C11.8657 0.796875 0.176773 12.4858 0.176773 26.8427C0.176773 41.1996 11.8657 52.8886 26.2226 52.8886C40.5795 52.8886 52.2685 41.1996 52.2685 26.8427C52.2685 12.4858 40.5987 0.796875 26.2226 0.796875ZM47.566 17.8025C48.0843 19.0309 48.5065 20.3169 48.8136 21.6604L46.8942 20.1441L47.566 17.8025ZM45.5891 14.1365C45.5699 14.1749 45.5507 14.2325 45.5507 14.2709L44.0728 19.5299L35.7619 22.2362L27.6814 16.8428V7.62983L32.3646 4.50126C37.854 6.01756 42.5373 9.49162 45.5891 14.1365ZM33.7082 24.6355L31.3473 32.9079C31.1938 32.9463 31.0211 33.0039 30.8867 33.0999H21.5778C21.4242 33.0039 21.2707 32.9463 21.1171 32.9079L18.7563 24.6355C18.7947 24.5779 18.8139 24.5203 18.8331 24.4435C18.8522 24.3859 18.8714 24.3284 18.8714 24.2708L26.2418 19.3572L33.6122 24.2708C33.6314 24.3284 33.6314 24.3859 33.6506 24.4435C33.6506 24.5203 33.689 24.5779 33.7082 24.6355ZM26.2226 3.67593C26.9136 3.67593 27.5854 3.71432 28.2572 3.7719L26.2226 5.11546L24.1881 3.7719C24.8791 3.71432 25.5508 3.67593 26.2226 3.67593ZM20.119 4.50126C20.1574 4.53965 20.1958 4.55884 20.2342 4.59723L24.7831 7.62983V16.862L16.7026 22.2554L8.39168 19.5299L6.87538 14.1173C9.92717 9.49162 14.6296 5.99837 20.119 4.50126ZM4.89842 17.8025L5.55101 20.1441L3.63164 21.6604C3.95793 20.3169 4.38019 19.0309 4.89842 17.8025ZM3.05583 26.8427C3.05583 26.4781 3.07502 26.1134 3.07502 25.7487C3.11341 25.7295 3.1518 25.6911 3.19018 25.6719L7.48957 22.2746L15.8388 24.9809L18.6411 34.8081L13.7467 41.5451L8.14216 41.3148C4.9752 37.3609 3.05583 32.3321 3.05583 26.8427ZM11.0404 44.3282L13.4588 44.4242L14.3033 46.7082C13.1517 46.0172 12.0577 45.2111 11.0404 44.3282ZM34.4183 48.5316C31.8656 49.4913 29.1209 50.0287 26.2418 50.0287C23.3628 50.0287 20.5989 49.4913 18.0461 48.5316C18.0269 48.474 18.0269 48.4357 18.0077 48.3781L16.1075 43.2534L21.3858 35.9789H31.0786L36.3569 43.2534L34.4183 48.5316ZM38.1611 46.7082L39.0056 44.4242L41.424 44.3282C40.4068 45.2111 39.3127 46.0172 38.1611 46.7082ZM44.3031 41.334C44.2647 41.334 44.2071 41.334 44.1687 41.334L38.6985 41.5451L33.8041 34.8081L36.6064 24.9809L44.9557 22.2746L49.3702 25.7679C49.3894 26.1326 49.3894 26.4781 49.3894 26.8427C49.4086 32.3321 47.4893 37.3609 44.3031 41.334Z" fill="white"/>
</svg>
