<svg width="100" height="70" viewBox="0 0 100 70" fill="none" xmlns="http://www.w3.org/2000/svg">
<path d="M99.6331 33.3343C91.2578 15.8002 72.2567 0 50.0073 0C24.9792 0 6.99574 19.5018 0.381586 33.3343C-0.127195 34.3863 -0.127195 35.6137 0.381586 36.6657C8.73734 54.1998 27.7579 70 50.0073 70C75.0355 70 93.0189 50.4982 99.6331 36.6657C100.122 35.6137 100.122 34.3863 99.6331 33.3343ZM50.0073 62.2266C32.0043 62.2266 17.0931 50.4203 8.34597 35.0097C17.054 19.6382 31.9652 7.77345 50.0073 7.77345C68.0104 7.77345 82.9216 19.5797 91.6687 34.9903C82.9607 50.3423 68.0495 62.2266 50.0073 62.2266ZM50.0073 15.5469C39.2447 15.5469 30.478 24.275 30.478 34.9903C30.478 45.7055 39.2447 54.4336 50.0073 54.4336C60.77 54.4336 69.5367 45.7055 69.5367 34.9903C69.5367 24.275 60.77 15.5469 50.0073 15.5469ZM50.0073 46.6602C43.5497 46.6602 38.2858 41.4194 38.2858 34.9903C38.2858 28.5611 43.5497 23.3203 50.0073 23.3203C56.465 23.3203 61.7289 28.5611 61.7289 34.9903C61.7289 41.4389 56.465 46.6602 50.0073 46.6602Z" fill="white"/>
</svg>
