<svg width="95" height="94" viewBox="0 0 95 94" fill="none" xmlns="http://www.w3.org/2000/svg">
<g clip-path="url(#clip0)">
<path d="M60.8694 44.1377L58.5143 43.4075V33.3481C58.5143 31.5773 57.0721 30.135 55.3012 30.135H50.1346C48.3637 30.135 46.9215 31.5773 46.9215 33.3481V34.1332L13.074 43.0423H4.03705C2.26617 43.0423 0.823914 44.4846 0.823914 46.2555V64.6945C0.823914 66.4654 2.26617 67.9076 4.03705 67.9076H5.99049V85.4338C5.11418 85.9268 4.51172 86.8578 4.51172 87.9167V90.8743C4.51172 92.4443 5.78967 93.7223 7.35973 93.7223H16.2141C17.7842 93.7223 19.0621 92.4443 19.0621 90.8743V87.9167C19.0621 86.8396 18.4597 85.9085 17.5833 85.4156V76.7438H20.267C20.9243 76.7438 21.472 76.2873 21.5998 75.6484L22.7864 69.9158L46.9215 74.9911V75.7214C46.9215 77.4923 48.3637 78.9345 50.1346 78.9345H55.3012C57.0721 78.9345 58.5143 77.4923 58.5143 75.7214V67.506L60.8694 66.7757C62.9872 66.1185 64.4112 64.1651 64.4112 61.956V48.9392C64.4294 46.7301 62.9872 44.7949 60.8694 44.1377ZM13.1105 67.9076L14.8266 68.2728V85.087H8.72896V67.9076H13.1105ZM16.3236 90.8743C16.3236 90.929 16.2689 90.9838 16.2141 90.9838H7.35973C7.30496 90.9838 7.25019 90.929 7.25019 90.8743V87.9167C7.25019 87.8619 7.30496 87.8072 7.35973 87.8072H16.2141C16.2689 87.8072 16.3236 87.8619 16.3236 87.9167V90.8743ZM19.1534 74.0235H17.5833V68.857L20.121 69.3864L19.1534 74.0235ZM55.3012 76.2326H50.1346C49.879 76.2326 49.6599 76.0135 49.6599 75.7579V44.9593C49.6599 44.2107 49.0392 43.59 48.2907 43.59C47.5422 43.59 46.9215 44.2107 46.9215 44.9593V72.2162L16.488 65.8081L14.6258 65.4247V63.7086C14.6258 62.9601 14.0051 62.3394 13.2566 62.3394C12.508 62.3394 11.8873 62.9601 11.8873 63.7086V65.1692H7.35973H4.03705C3.78146 65.1692 3.56238 64.9501 3.56238 64.6945V46.2555C3.56238 45.9999 3.78146 45.7808 4.03705 45.7808H11.8873V57.3189C11.8873 58.0674 12.508 58.6881 13.2566 58.6881C14.0051 58.6881 14.6258 58.0674 14.6258 57.3189V45.4704L46.9215 36.9629V38.5695C46.9215 39.318 47.5422 39.9387 48.2907 39.9387C49.0392 39.9387 49.6599 39.318 49.6599 38.5695V33.3481C49.6599 33.0926 49.879 32.8735 50.1346 32.8735H55.3012C55.5568 32.8735 55.7759 33.0926 55.7759 33.3481V44.3933V44.4298V75.7762C55.7759 76.0135 55.575 76.2326 55.3012 76.2326ZM61.691 61.9743C61.691 62.9966 61.0337 63.8912 60.0661 64.1833L58.5326 64.658V46.2737L60.0661 46.7484C61.0337 47.0587 61.691 47.9351 61.691 48.9574V61.9743Z" fill="#93C11A"/>
<path d="M48.9479 6.16406C45.1506 6.16406 42.047 9.26766 42.047 13.065C42.047 16.8623 45.1506 19.9659 48.9479 19.9659C50.3719 19.9659 51.7047 19.5278 52.8183 18.7793L53.5668 19.5278C53.8407 19.8016 54.1875 19.9294 54.5344 19.9294C54.8813 19.9294 55.2282 19.8016 55.502 19.5278C56.0314 18.9984 56.0314 18.122 55.502 17.5926L54.7352 16.8258C55.4472 15.7487 55.8489 14.4525 55.8489 13.065C55.8489 9.26766 52.7453 6.16406 48.9479 6.16406ZM48.9479 17.2275C46.6476 17.2275 44.7855 15.3653 44.7855 13.065C44.7855 10.7647 46.6476 8.90253 48.9479 8.90253C51.2483 8.90253 53.1104 10.7647 53.1104 13.065C53.1104 13.6857 52.9644 14.2882 52.727 14.8176L51.9603 14.0509C51.4308 13.5214 50.5545 13.5214 50.0251 14.0509C49.4956 14.5803 49.4956 15.4566 50.0251 15.986L50.8284 16.7893C50.2624 17.0632 49.6234 17.2275 48.9479 17.2275Z" fill="#93C11A"/>
<path d="M75.5111 18.5967V7.5333C75.5111 6.78478 74.8904 6.16406 74.1419 6.16406C73.3934 6.16406 72.7726 6.78478 72.7726 7.5333V18.5967C72.7726 19.3452 73.3934 19.9659 74.1419 19.9659C74.8904 19.9659 75.5111 19.3452 75.5111 18.5967Z" fill="#93C11A"/>
<path d="M78.5234 19.2539C78.7608 19.6921 79.2172 19.9659 79.7284 19.9659H87.104C87.8525 19.9659 88.4732 19.3452 88.4732 18.5967C88.4732 17.8482 87.8525 17.2275 87.104 17.2275H82.2477L88.0898 8.28181C88.3637 7.86191 88.3819 7.33248 88.1446 6.87606C87.9072 6.43791 87.4508 6.16406 86.9397 6.16406H79.9657C79.2172 6.16406 78.5965 6.78478 78.5965 7.5333C78.5965 8.28181 79.2172 8.90253 79.9657 8.90253H84.4203L78.5965 17.8482C78.3043 18.2681 78.2861 18.8158 78.5234 19.2539Z" fill="#93C11A"/>
<path d="M60.4496 6.16406C59.701 6.16406 59.0803 6.78478 59.0803 7.5333V15.1462C59.0803 16.8076 59.8836 18.1586 61.4537 19.1627C62.2752 19.6921 63.2063 19.9659 64.2286 19.9659C65.1049 19.9659 65.9265 19.7834 66.675 19.4C69.0301 18.2133 69.5048 16.4242 69.5048 15.128V7.5333C69.5048 6.78478 68.884 6.16406 68.1355 6.16406C67.387 6.16406 66.7663 6.78478 66.7663 7.5333V15.1462C66.7663 15.6757 66.6202 16.3694 65.4336 16.9719C65.0684 17.1544 64.6668 17.2457 64.2286 17.2457C63.7357 17.2457 63.3158 17.1179 62.9324 16.8806C62.0196 16.2964 61.837 15.767 61.837 15.1645V7.5333C61.8188 6.78478 61.1981 6.16406 60.4496 6.16406Z" fill="#93C11A"/>
<path d="M89.7511 0.249023H40.7873C38.2679 0.249023 36.2415 2.29375 36.2415 4.79488V21.3352C36.2415 23.8364 38.2862 25.8811 40.7873 25.8811H58.3318C59.0803 25.8811 59.701 25.2604 59.701 24.5119C59.701 23.7633 59.0803 23.1426 58.3318 23.1426H40.7873C39.7832 23.1426 38.9799 22.3393 38.9799 21.3352V4.79488C38.9799 3.79078 39.7832 2.98749 40.7873 2.98749H89.7511C90.7552 2.98749 91.5585 3.79078 91.5585 4.79488V21.3352C91.5585 22.3393 90.737 23.1426 89.7511 23.1426H78.2131C77.8479 23.1426 77.5011 23.2887 77.2455 23.5443L70.3263 30.427V24.5119C70.3263 23.7633 69.7055 23.1426 68.957 23.1426H64.7215C63.973 23.1426 63.3523 23.7633 63.3523 24.5119C63.3523 25.2604 63.973 25.8811 64.7215 25.8811H67.5878V33.7131C67.5878 34.2608 67.9164 34.772 68.4276 34.9728C68.5919 35.0458 68.7745 35.0824 68.957 35.0824C69.3039 35.0824 69.669 34.9363 69.9246 34.6807L78.779 25.8811H89.7511C92.2523 25.8811 94.297 23.8364 94.297 21.3352V4.79488C94.297 2.29375 92.2523 0.249023 89.7511 0.249023Z" fill="#93C11A"/>
</g>
<defs>
<clipPath id="clip0">
<rect width="93.4731" height="93.4731" fill="white" transform="translate(0.823914 0.249023)"/>
</clipPath>
</defs>
</svg>
