<?xml version="1.0" encoding="UTF-8"?>
<svg width="18px" height="15px" viewBox="0 0 18 15" version="1.1" xmlns="http://www.w3.org/2000/svg" xmlns:xlink="http://www.w3.org/1999/xlink">
    <!-- Generator: Sketch 43 (38999) - http://www.bohemiancoding.com/sketch -->
    <title>Fill 57</title>
    <desc>Created with Sketch.</desc>
    <defs></defs>
    <g id="Участие" stroke="none" stroke-width="1" fill="none" fill-rule="evenodd">
        <g id="Событие-БУДУЩЕЕ---маленькое_ГЛАВНАЯ" transform="translate(-730.000000, -489.000000)" fill="#000">
            <g id="Group-22" transform="translate(711.000000, 450.000000)">
                <g id="Group-21" transform="translate(12.000000, 0.000000)">
                    <g id="Group-4" transform="translate(0.000000, 31.000000)">
                        <path d="M24.2671667,9.66076055 C23.6316645,9.94293862 22.9487317,10.1333487 22.23246,10.2185864 C22.9638546,9.7800246 23.5264922,9.08643711 23.7901104,8.25880644 C23.1064902,8.66471666 22.3486308,8.95995534 21.5412784,9.11908865 C20.8947779,8.42996926 19.9736607,8 18.9549326,8 C16.9985896,8 15.4120684,9.58617755 15.4120684,11.5425205 C15.4120684,11.8205741 15.4436888,12.090379 15.5034927,12.3495291 C12.5596984,12.2024253 9.94963722,10.7922224 8.20192046,8.64787534 C7.89740186,9.17201852 7.72245834,9.7800246 7.72245834,10.4296184 C7.72245834,11.6580038 8.34764944,12.7430661 9.29798117,13.3778809 C8.71747112,13.3600084 8.17133112,13.199844 7.6935875,12.934851 L7.6935875,12.979532 C7.6935875,14.6956284 8.91509888,16.1274844 10.5349591,16.4529687 C10.2383456,16.5337383 9.92454709,16.5780757 9.60146867,16.5780757 C9.37393897,16.5780757 9.15122108,16.5550478 8.93537721,16.51346 C9.38596849,17.921257 10.6940924,18.944797 12.2441814,18.9743552 C11.0326373,19.9243432 9.50523254,20.4907616 7.84412829,20.4907616 C7.55885692,20.4907616 7.27702256,20.4735765 7,20.4412687 C8.56761773,21.4455614 10.4297867,22.0322581 12.4311544,22.0322581 C18.9470275,22.0322581 22.51017,16.63513 22.51017,11.9532425 C22.51017,11.7999521 22.5060456,11.6473491 22.5002027,11.4940587 C23.1910406,10.9956931 23.7911415,10.3715331 24.2671667,9.66076055" id="Fill-57"></path>
                    </g>
                </g>
            </g>
        </g>
    </g>
</svg>