<?xml version="1.0" encoding="UTF-8"?>
<svg width="20px" height="12px" viewBox="0 0 20 12" version="1.1" xmlns="http://www.w3.org/2000/svg" xmlns:xlink="http://www.w3.org/1999/xlink">
    <!-- Generator: Sketch 43 (38999) - http://www.bohemiancoding.com/sketch -->
    <title>path9</title>
    <desc>Created with Sketch.</desc>
    <defs></defs>
    <g id="Участие" stroke="none" stroke-width="1" fill="none" fill-rule="evenodd">
        <g id="Событие-БУДУЩЕЕ---маленькое_ГЛАВНАЯ" transform="translate(-768.000000, -490.000000)" fill="#000000">
            <g id="Group-22" transform="translate(711.000000, 450.000000)">
                <g id="Group-21" transform="translate(12.000000, 0.000000)">
                    <g id="Group-5" transform="translate(40.548387, 31.000000)">
                        <path d="M14.3121797,20.3608065 L15.449724,20.3608065 C15.449724,20.3608065 15.7932285,20.3228544 15.9688428,20.1338883 C16.1304799,19.9602054 16.1253106,19.6342018 16.1253106,19.6342018 C16.1253106,19.6342018 16.102864,18.1077573 16.8114633,17.8830545 C17.5099444,17.6615906 18.4067075,19.3582522 19.3572213,20.0106 C20.0760425,20.5042641 20.6223186,20.3962019 20.6223186,20.3962019 L23.1640402,20.3608065 C23.1640402,20.3608065 24.493337,20.2787091 23.8630361,19.2332596 C23.8114476,19.1479238 23.4956693,18.4600663 21.9732602,17.0469112 C20.3791489,15.567396 20.5928284,15.8068705 22.5127192,13.2481008 C23.6817934,11.6897828 24.1493789,10.7387028 24.0031392,10.3311134 C23.8639425,9.94295442 23.0040503,10.0453344 23.0040503,10.0453344 L20.1421163,10.0632317 C20.1421163,10.0632317 19.9300845,10.0342555 19.7726488,10.128341 C19.6189668,10.2204947 19.520224,10.4354251 19.520224,10.4354251 C19.520224,10.4354251 19.0668973,11.6412633 18.4630123,12.6667709 C17.1888807,14.8305075 16.6792549,14.945046 16.4709716,14.8103948 C15.9863961,14.4972316 16.1075803,13.5526279 16.1075803,12.881247 C16.1075803,10.7842113 16.4256306,9.90977433 15.4880157,9.68353752 C15.1768981,9.60842898 14.9478216,9.55860199 14.1521841,9.55059114 C13.1311687,9.54019408 12.2668424,9.55383145 11.7776115,9.79341728 C11.452059,9.95323776 11.2007676,10.30816 11.3540013,10.3287272 C11.5431335,10.353953 11.9714043,10.4441178 12.1984352,10.753247 C12.4917174,11.152315 12.4814336,12.0482279 12.4814336,12.0482279 C12.4814336,12.0482279 12.6500595,14.5167757 12.0879331,14.8232351 C11.7021061,15.0336206 11.1729856,14.6042707 10.0367461,12.6410906 C9.45479383,11.6356387 9.01527193,10.5238294 9.01527193,10.5238294 C9.01527193,10.5238294 8.93073224,10.3163417 8.77943363,10.2050416 C8.59603504,10.0702196 8.33969049,10.0276083 8.33969049,10.0276083 L5.62018683,10.0452211 C5.62018683,10.0452211 5.21191892,10.056811 5.06226759,10.2343576 C4.92869408,10.39236 5.05158646,10.7188179 5.05158646,10.7188179 C5.05158646,10.7188179 7.18049564,15.6999446 9.59120367,18.210024 C11.8022088,20.5120475 14.3121797,20.3608065 14.3121797,20.3608065 L14.3121797,20.3608065 L14.3121797,20.3608065 Z" id="path9"></path>
                    </g>
                </g>
            </g>
        </g>
    </g>
</svg>