<?xml version="1.0" encoding="UTF-8"?>
<svg width="17px" height="19px" viewBox="0 0 17 19" version="1.1" xmlns="http://www.w3.org/2000/svg" xmlns:xlink="http://www.w3.org/1999/xlink">
    <!-- Generator: Sketch 43.1 (39012) - http://www.bohemiancoding.com/sketch -->
    <title>Group 14</title>
    <desc>Created with Sketch.</desc>
    <defs></defs>
    <g id="Участие" stroke="none" stroke-width="1" fill="none" fill-rule="evenodd">
        <g id="Событие-БУДУЩЕЕ---маленькое_ГЛАВНАЯ" transform="translate(-507.000000, -1537.000000)">
            <g id="Group-23" transform="translate(377.000000, 1490.000000)">
                <g id="communities" transform="translate(1.000000, 39.000000)">
                    <g id="Group-13">
                        <g id="Group" transform="translate(122.645161, 3.000000)">
                            <g id="Group-14" transform="translate(7.000000, 5.000000)">
                                <path d="M6.15525161,0.0318709677 L5.09212903,0.0318709677 L4.37522581,2.75959677 L3.6292129,0.0318709677 L2.52273548,0.0318709677 C2.74415484,0.675112903 2.97517419,1.32264516 3.19659355,1.9671129 C3.53352258,2.93580645 3.74410323,3.66577419 3.83917419,4.16467742 L3.83917419,6.97820968 L4.89052903,6.97820968 L4.89052903,4.16467742 L6.15525161,0.0318709677 L6.15525161,0.0318709677 Z M8.96495484,5.30222581 L8.96495484,3.48864516 C8.96495484,2.93580645 8.86895484,2.53159677 8.67014194,2.26927419 C8.40753548,1.91593548 8.03901935,1.73880645 7.56428387,1.73880645 C7.09233548,1.73880645 6.72258065,1.91593548 6.46059355,2.26927419 C6.25868387,2.53159677 6.1636129,2.93580645 6.1636129,3.48864516 L6.1636129,5.30222581 C6.1636129,5.8526129 6.25868387,6.26019355 6.46059355,6.52006452 C6.72258065,6.87279032 7.09233548,7.04991935 7.56428387,7.04991935 C8.03901935,7.04991935 8.40753548,6.87279032 8.67014194,6.52006452 C8.86895484,6.26019355 8.96495484,5.8526129 8.96495484,5.30222581 L8.96495484,5.30222581 Z M8.0164129,5.47874194 C8.0164129,5.95772581 7.86993548,6.19737097 7.56428387,6.19737097 C7.25832258,6.19737097 7.11153548,5.95772581 7.11153548,5.47874194 L7.11153548,3.30079032 C7.11153548,2.82180645 7.25832258,2.5833871 7.56428387,2.5833871 C7.86993548,2.5833871 8.0164129,2.82180645 8.0164129,3.30079032 L8.0164129,5.47874194 L8.0164129,5.47874194 Z M12.4701935,6.97820968 L12.4701935,1.80162903 L11.522271,1.80162903 L11.522271,5.75822581 C11.3116903,6.0521129 11.1125677,6.19737097 10.9233548,6.19737097 C10.7957677,6.19737097 10.7217548,6.12320968 10.7013161,5.97764516 C10.6895484,5.94730645 10.6895484,5.83269355 10.6895484,5.61266129 L10.6895484,1.80162903 L9.7444129,1.80162903 L9.7444129,5.89490323 C9.7444129,6.26019355 9.77661935,6.5081129 9.82895484,6.66470968 C9.92309677,6.92703226 10.1336774,7.04991935 10.439329,7.04991935 C10.784929,7.04991935 11.1444645,6.84183871 11.522271,6.41341935 L11.522271,6.97820968 L12.4701935,6.97820968 L12.4701935,6.97820968 Z" id="Fill-2" fill="#000"></path>
                                <path d="M15.2687484,16.8919194 C15.0792258,17.7083065 14.404129,18.3104839 13.5912258,18.4008871 C11.6665806,18.6135645 9.71809032,18.6147903 7.7792,18.6135645 C5.83969032,18.6147903 3.89181935,18.6135645 1.96717419,18.4008871 C1.15427097,18.3104839 0.479174194,17.7083065 0.28996129,16.8919194 C0.0196129032,15.7289355 0.0196129032,14.4583871 0.0196129032,13.2610806 C0.0196129032,12.0622419 0.0224,10.7941452 0.293058065,9.62962903 C0.482580645,8.81354839 1.15736774,8.21106452 1.97027097,8.12127419 C3.89522581,7.90798387 5.84309677,7.90767742 7.78229677,7.90798387 C9.7211871,7.90767742 11.6696774,7.90798387 13.5943226,8.12127419 C14.4075355,8.21106452 15.0826323,8.81354839 15.2718452,9.62962903 C15.5418839,10.7941452 15.5409548,12.0622419 15.5409548,13.2610806 C15.5409548,14.4583871 15.5400258,15.7289355 15.2687484,16.8919194 Z" id="Fill-3" fill="#000"></path>
                                <path d="M4.44676129,10.6770806 L4.44676129,9.70869355 L1.17594839,9.70869355 L1.17594839,10.6770806 L2.27963871,10.6770806 L2.27963871,16.5839355 L3.32263226,16.5839355 L3.32263226,10.6770806 L4.44676129,10.6770806 L4.44676129,10.6770806 Z M6.34167742,16.5839355 L6.34167742,16.0255806 C5.96944516,16.4484839 5.61517419,16.6547258 5.27019355,16.6547258 C4.96763871,16.6547258 4.75953548,16.533371 4.6660129,16.2735 C4.61429677,16.1178226 4.58301935,15.8738871 4.58301935,15.5119677 L4.58301935,11.4609839 L5.52072258,11.4609839 L5.52072258,15.2327903 C5.52072258,15.4497581 5.52072258,15.5637581 5.52939355,15.5937903 C5.55230968,15.7375161 5.62322581,15.8104516 5.74864516,15.8104516 C5.93692903,15.8104516 6.13450323,15.6667258 6.34167742,15.3765161 L6.34167742,11.4609839 L7.28092903,11.4609839 L7.28092903,16.5839355 L6.34167742,16.5839355 L6.34167742,16.5839355 Z M9.90637419,15.1200161 C9.90637419,15.5827581 9.76856774,15.8104516 9.49821935,15.8104516 C9.344,15.8104516 9.18730323,15.7375161 9.03060645,15.5827581 L9.03060645,12.4600161 C9.18730323,12.3074032 9.344,12.2341613 9.49821935,12.2341613 C9.76856774,12.2341613 9.90637419,12.4716613 9.90637419,12.9334839 L9.90637419,15.1200161 L9.90637419,15.1200161 Z M10.8440774,15.0470806 L10.8440774,13.0064194 C10.8440774,12.5222258 10.811871,12.1826774 10.7493161,11.9764355 C10.6242065,11.5930645 10.3736774,11.3987742 9.9995871,11.3987742 C9.65522581,11.3987742 9.33378065,11.5857097 9.03060645,11.9540645 L9.03060645,9.70869355 L8.09290323,9.70869355 L8.09290323,16.5839355 L9.03060645,16.5839355 L9.03060645,16.0877903 C9.344,16.4711613 9.66575484,16.6547258 9.9995871,16.6547258 C10.3736774,16.6547258 10.6242065,16.460129 10.7493161,16.0789032 C10.811871,15.8622419 10.8440774,15.5205484 10.8440774,15.0470806 L10.8440774,15.0470806 Z M13.4462968,13.4189032 L12.5089032,13.4189032 L12.5089032,12.9454355 C12.5089032,12.4716613 12.6656,12.2341613 12.9793032,12.2341613 C13.2892903,12.2341613 13.4462968,12.4716613 13.4462968,12.9454355 L13.4462968,13.4189032 L13.4462968,13.4189032 Z M14.3846194,14.9450323 L14.3846194,14.8098871 L13.4267871,14.8098871 C13.4267871,15.1822258 13.4156387,15.3872419 13.4069677,15.4378065 C13.3530839,15.6860323 13.2180645,15.8104516 12.9873548,15.8104516 C12.6656,15.8104516 12.5089032,15.5741774 12.5089032,15.0997903 L12.5089032,14.1920806 L14.3846194,14.1920806 L14.3846194,13.1311452 C14.3846194,12.5832097 14.2901677,12.1826774 14.0938323,11.9240323 C13.8312258,11.5728387 13.4577548,11.3987742 12.9873548,11.3987742 C12.5089032,11.3987742 12.1345032,11.5728387 11.8641548,11.9240323 C11.6644129,12.1826774 11.5742968,12.5832097 11.5742968,13.1311452 L11.5742968,14.9257258 C11.5742968,15.4690645 11.6764903,15.8738871 11.8756129,16.1294677 C12.146271,16.4797419 12.5194323,16.6547258 13.0112,16.6547258 C13.5008,16.6547258 13.8854194,16.4711613 14.1455484,16.0994355 C14.2585806,15.9351774 14.3322839,15.7482419 14.363871,15.5432258 C14.3728516,15.4497581 14.3846194,15.2435161 14.3846194,14.9450323 L14.3846194,14.9450323 Z" id="Fill-4" fill="#93C11A"></path>
                            </g>
                        </g>
                    </g>
                </g>
            </g>
        </g>
    </g>
</svg>